<svg version="1.1" id="star-sbonzix" xmlns="http://www.w3.org/2000/svg" xmlns:xlink="http://www.w3.org/1999/xlink" x="0" y="0" width="200" height="80" viewBox="0 0 634.6 184.979" xml:space="preserve">
<g>
<path d="M523.424,21.627c-5.734-2.672-10.16-2.254-13.277,1.252c-1.449,1.67-2.604,3.662-3.467,5.971
c-0.863,2.31-1.225,4.606-1.084,6.889c0.137,2.284,0.848,4.329,2.129,6.137c1.279,1.81,3.34,3.048,6.18,3.716
c5.51,1.336,10.91-1.169,16.199-7.516C535.448,31.62,533.221,26.137,523.424,21.627z"></path>
<path d="M634.575,175.544c-22.992-21.766-63.436-69.549-64.326-76.842c6.234-11.078,14.418-21.628,24.549-31.648
c-1.279-8.518-4.648-13.027-10.104-13.528c-4.564,6.68-8.838,12.818-12.818,18.413s-7.723,10.76-11.23,15.49
c-3.563-7.068-6.875-13.264-9.938-18.58c-3.061-5.315-5.873-9.812-8.434-13.486c-7.508-4.678-13.123-1.038-16.854,10.872
c-2.353-7.93-6.69-9.5-13.019-4.692c-0.947,9.853-1.615,19.861-2.004,30.019c-0.391,10.16-0.447,20.584-0.168,31.272
c0.087,3.708,0.238,7.074,0.45,10.112c-0.598-1.057-1.273-1.95-2.05-2.639c-1.225-1.086-2.838-1.809-4.842-2.171
s-4.51-0.376-7.516-0.042s-6.652,0.947-10.939,1.838c-7.461,1.559-13.527,2.268-18.203,2.129s-8.268-0.765-10.773-1.879
c-1.225-0.556-1.127-2.088,0.293-4.593s4.146-6.317,8.184-11.44c4.035-5.121,9.365-11.69,15.99-19.707
c6.625-8.016,14.584-17.786,23.883-29.31c-8.129-3.674-17.773-6.263-28.934-7.766c-11.162-1.503-23.84-2.476-38.037-2.923
c-6.512,0.668-7.068,6.43-1.67,17.286c10.299-0.446,18.775-0.543,25.428-0.292c6.65,0.25,11.482,1.407,14.488,3.465
c-7.404,9.743-13.959,18.217-19.666,25.426c-5.707,7.211-10.563,13.445-14.57,18.705c-4.01,5.262-7.154,9.729-9.438,13.402
c-1.131,1.82-2.049,3.518-2.756,5.092c0.104-0.677,0.207-1.367,0.313-2.085c0.668-4.563,1.211-9.532,1.629-14.905
s0.639-10.91,0.668-16.617c0.027-5.707-0.25-11.161-0.834-16.367c-0.586-5.205-1.533-9.923-2.84-14.154
c-1.309-4.23-3.131-7.57-5.469-10.021c-2.953-3.061-6.293-5.357-10.021-6.889c-3.73-1.531-7.545-2.309-11.439-2.338
c-3.896-0.028-7.697,0.682-11.398,2.129c-3.703,1.448-6.945,3.62-9.729,6.513c-4.955,5.01-7.795,9.214-8.518,12.609
c-0.389-2.727-0.781-5.231-1.168-7.515c-0.391-2.283-0.795-4.259-1.211-5.929c-0.418-1.67-0.877-2.964-1.379-3.883
c-0.5-0.918-1.057-1.377-1.67-1.377c-0.891,0-2.018,0.306-3.381,0.918c-1.365,0.613-2.674,1.392-3.926,2.338
c-1.252,0.948-2.324,2.004-3.215,3.173s-1.281,2.338-1.168,3.507c0.445,6.625,0.889,13.208,1.336,19.749
c0.419,6.154,0.771,12.187,1.066,18.117c-1.206-9.614-5.395-19.176-12.59-28.681c-2.674-3.507-5.68-6.625-9.02-9.352
c-3.34-2.727-6.861-4.955-10.563-6.681c-3.703-1.725-7.504-2.867-11.398-3.423c-3.896-0.556-7.697-0.417-11.398,0.417
c-3.703,0.835-7.237,2.477-10.605,4.927c-3.369,2.45-6.388,5.817-9.06,10.104c-1.646,2.643-3.029,5.413-4.167,8.302
c-1.342-6.187-3.675-11.268-7.005-15.233c-5.734-7.014-12.693-10.91-20.876-11.69c-8.129-0.779-16.422,1.392-24.884,6.513
c1.503-13.582,2.672-33.485,3.507-59.705l-16.033,0.584c-0.501,22.659-1.545,46.207-3.131,70.644
c-0.971,14.96-2.159,30.364-3.558,46.2c-2.189-4.689-6.387-9.262-12.603-13.717c-10.076-7.236-18.65-12.471-25.719-15.699
c-7.126-3.284-6.235-6.764,2.672-10.438c8.906-3.729,15.977-4.814,21.21-3.257c5.177,1.503,7.653-0.028,7.432-4.593
c-0.279-4.621-2.087-8.016-5.428-10.188c-3.34-2.226-9.102-2.727-17.285-1.503c-15.477,3.453-24.913,9.77-28.308,18.956
c-3.34,9.131-3.369,15.252-0.083,18.37c3.284,3.007,10.659,6.903,22.128,11.69c11.411,4.732,17.59,9.298,18.538,13.695
c0.222,1.113,0.209,2.283-0.042,3.506c-0.25,1.226-0.739,2.41-1.461,3.55c-0.724,1.142-1.699,2.144-2.923,3.006
c-1.225,0.864-2.672,1.462-4.342,1.796c-6.793,1.336-13.39,1.642-19.791,0.918c-1.616-0.167-3.146-0.612-4.593-1.336
c-1.449-0.723-2.812-1.545-4.092-2.463c-1.281-0.919-2.477-1.907-3.59-2.965c-1.115-1.057-2.117-2.004-3.006-2.84
c-3.674-3.451-5.734-0.277-6.179,9.52c-0.447,9.799,5.983,15.477,19.289,17.035c13.249,1.67,24.772,0,34.571-5.01
c5.377-2.795,9.334-5.982,11.893-9.556c-0.389,4.023-0.786,8.065-1.202,12.144c14.918,2.004,28.78,0.974,41.585-3.09
c12.914-4.063,21.849-9.797,26.805-17.201c1.989-2.984,3.595-6.459,4.829-10.407c0.822,2.7,1.869,5.271,3.171,7.693
c3.006,5.595,7.014,10.146,12.025,13.653c5.01,3.507,10.896,5.845,17.66,7.014c6.764,1.17,14.125,0.836,22.088-1.002
c3.84-0.889,7.25-2.199,10.229-3.924c2.977-1.725,5.512-3.801,7.6-6.222c2.088-2.422,3.77-5.136,5.051-8.142
s2.143-6.234,2.59-9.687c0.219-1.591,0.348-3.181,0.403-4.77c0.165,4.082,0.298,8.098,0.39,12.034
c0.137,5.958,0.125,11.663-0.043,17.119c0.111,1.168,0.404,2.17,0.877,3.006c0.473,0.834,1.295,1.517,2.465,2.045
c1.168,0.531,2.797,0.906,4.885,1.128c2.088,0.223,4.828,0.279,8.225,0.167c-0.279-3.674-0.572-7.891-0.877-12.65
c-0.307-4.76-0.529-9.604-0.668-14.53s-0.125-9.714,0.041-14.362c0.168-4.647,0.586-8.697,1.254-12.15
c0.166-0.945,0.779-2.254,1.836-3.924s2.422-3.438,4.092-5.303s3.578-3.717,5.721-5.553c2.143-1.838,4.426-3.382,6.848-4.635
c2.422-1.253,4.912-2.116,7.473-2.589c2.561-0.472,5.064-0.292,7.516,0.543c1.725,0.613,3.174,1.879,4.342,3.8
c1.17,1.92,2.102,4.3,2.799,7.139c0.695,2.84,1.195,5.984,1.502,9.437c0.305,3.452,0.486,7.015,0.543,10.688
c0.055,3.674,0,7.32-0.168,10.939c-0.166,3.619-0.361,6.972-0.584,10.062s-0.459,5.833-0.709,8.226
c-0.25,2.394-0.432,4.175-0.543,5.344c-0.113,1.169-0.322,2.297-0.627,3.382c-0.307,1.085-0.584,2.102-0.834,3.048
c-0.252,0.947-0.432,1.795-0.543,2.547c-0.113,0.752,0,1.406,0.334,1.963c0.5,0.834,1.531,1.336,3.09,1.502
c1.557,0.168,3.186,0.084,4.885-0.25c1.697-0.334,3.242-0.822,4.635-1.461c1.391-0.639,2.141-1.322,2.254-2.046
c0.264-1.242,0.531-2.649,0.805-4.2c2.291,1.591,4.655,2.823,7.107,3.657c2.701,0.919,5.666,1.532,8.895,1.837
c3.227,0.305,6.818,0.431,10.771,0.376c3.953-0.056,8.461-0.14,13.527-0.251c4.564-0.055,8.713-0.277,12.441-0.668
c3.73-0.389,7.1-0.793,10.105-1.211c3.006-0.417,5.719-0.779,8.141-1.085s4.635-0.431,6.639-0.376
c1.67,0.056,3.033-0.055,4.092-0.334c0.589-0.155,1.067-0.391,1.458-0.693c1.294,7.069,3.288,10.366,5.987,9.879
c4.676-0.835,7.041-2.367,7.098-4.593l0.355-8.159c2.168,4.152,5.54,6.55,10.146,7.157c5.176,0.668,9.602-4.259,13.275-14.78
c3.674-10.576,7.738-18.008,12.191-22.295c4.064,5.232,7.543,10.008,10.438,14.32c2.895,4.314,5.205,8.225,6.932,11.732
c3.396,7.014,35.74,45.194,40.025,48.033C629.62,183.365,635.02,180.22,634.575,175.544z M255.19,122.5
c-5.791,6.96-17.424,10.41-34.904,10.354c0.723-35.518,6.43-55.084,17.118-58.703c10.688-3.619,17.814-2.923,21.377,2.088
c3.619,4.955,5.344,12.164,5.177,21.627C263.846,107.386,260.923,115.599,255.19,122.5z M342.352,112.146
c-0.557,3.006-1.795,5.846-3.715,8.518c-1.922,2.672-4.664,5.01-8.227,7.014c-2.951,1.67-6.012,2.673-9.186,3.007
c-3.172,0.334-6.262,0.125-9.268-0.626c-3.006-0.752-5.875-1.963-8.602-3.633c-2.728-1.67-5.123-3.645-7.182-5.929
c-2.059-2.282-3.729-4.814-5.01-7.599c-1.281-2.783-1.977-5.679-2.088-8.685c-0.279-5.456-0.041-10.229,0.71-14.321
s1.907-7.486,3.466-10.188c1.557-2.699,3.507-4.718,5.846-6.054c2.338-1.336,4.98-2.004,7.932-2.004
c3.174,0.056,6.318,0.668,9.436,1.837c3.119,1.169,6.082,2.756,8.895,4.76c2.811,2.004,5.385,4.329,7.725,6.973
c2.338,2.645,4.285,5.469,5.844,8.476c1.559,3.006,2.658,6.083,3.299,9.228C342.866,106.063,342.909,109.14,342.352,112.146z
M525.501,137.682l1.763-40.483c0.59-13.208,0.115-23.004-1.422-29.393c10.467,11.444,18.62,21.745,24.449,30.897
C538.21,114.249,529.951,127.241,525.501,137.682z"></path>
<polygon points="129.031,150.896 79.746,121.915 36.954,159.833 49.286,104.004 0,75.023 56.907,69.5 69.239,13.671 92.078,66.086
148.985,60.563 106.192,98.48 	"></polygon>
</g>
</svg>